<svg width="194" height="118" viewBox="0 0 194 118" fill="none" xmlns="http://www.w3.org/2000/svg">
<rect width="194" height="118" fill="#555555"/>
<g clip-path="url(#clip0_1_1094)">
<rect width="1440" height="10784" transform="translate(-802 -4237)" fill="black"/>
<rect width="193.846" height="117.605" rx="14.7953" fill="black"/>
<rect x="0.308235" y="0.308235" width="193.229" height="116.989" rx="14.4871" stroke="white" stroke-opacity="0.5" stroke-width="0.616471"/>
<path d="M27.917 27.5764H24.981V83.7269H27.917V27.5764Z" fill="#406EB2"/>
<path d="M34.4219 27.5764H31.4858V83.7269H34.4219V27.5764Z" fill="#406EB2"/>
<path d="M47.4234 27.5764H44.4873V83.7269H47.4234V27.5764Z" fill="#406EB2"/>
<path d="M53.92 27.5764H50.9839V83.7269H53.92V27.5764Z" fill="#406EB2"/>
<path d="M66.9215 27.5764H63.9854V83.7269H66.9215V27.5764Z" fill="#406EB2"/>
<path d="M73.4263 27.5764H70.4902V83.7269H73.4263V27.5764Z" fill="#406EB2"/>
<path d="M86.4278 27.5764H83.4917V83.7269H86.4278V27.5764Z" fill="#406EB2"/>
<path d="M92.9244 27.5764H89.9883V83.7269H92.9244V27.5764Z" fill="#406EB2"/>
<path d="M105.926 27.5764H102.99V83.7269H105.926V27.5764Z" fill="#406EB2"/>
<path d="M112.422 27.5764H109.486V83.7269H112.422V27.5764Z" fill="#406EB2"/>
<path d="M125.424 27.5764H122.488V83.7269H125.424V27.5764Z" fill="#406EB2"/>
<path d="M131.929 27.5764H128.993V83.7269H131.929V27.5764Z" fill="#406EB2"/>
<path d="M144.93 27.5764H141.994V83.7269H144.93V27.5764Z" fill="#406EB2"/>
<path d="M151.427 27.5764H148.491V83.7269H151.427V27.5764Z" fill="#406EB2"/>
<path d="M164.428 27.5764H161.492V83.7269H164.428V27.5764Z" fill="#406EB2"/>
<path d="M170.933 27.5764H167.997V83.7269H170.933V27.5764Z" fill="#406EB2"/>
<path d="M27.917 48.7373H24.981V83.735H27.917V48.7373Z" fill="url(#paint0_linear_1_1094)"/>
<path d="M34.4219 62.9065H31.4858V83.7267H34.4219V62.9065Z" fill="url(#paint1_linear_1_1094)"/>
<path d="M47.4234 59.062H44.4873V83.7267H47.4234V59.062Z" fill="url(#paint2_linear_1_1094)"/>
<path d="M53.92 52.3384H50.9839V83.7268H53.92V52.3384Z" fill="url(#paint3_linear_1_1094)"/>
<path d="M66.9215 55.7043H63.9854V83.735H66.9215V55.7043Z" fill="url(#paint4_linear_1_1094)"/>
<path d="M73.4263 63.5474H70.4902V83.7268H73.4263V63.5474Z" fill="url(#paint5_linear_1_1094)"/>
<path d="M86.4278 61.4709H83.4917V83.7348H86.4278V61.4709Z" fill="url(#paint6_linear_1_1094)"/>
<path d="M92.9244 54.0984H89.9883V83.7268H92.9244V54.0984Z" fill="url(#paint7_linear_1_1094)"/>
<path d="M105.926 46.3364H102.99V83.7349H105.926V46.3364Z" fill="url(#paint8_linear_1_1094)"/>
<path d="M112.422 60.3438H109.486V83.7269H112.422V60.3438Z" fill="url(#paint9_linear_1_1094)"/>
<path d="M125.424 49.2158H122.488V83.7269H125.424V49.2158Z" fill="url(#paint10_linear_1_1094)"/>
<path d="M131.929 67.554H128.993V83.7267H131.929V67.554Z" fill="url(#paint11_linear_1_1094)"/>
<path d="M144.93 58.8269H141.994V83.7349H144.93V58.8269Z" fill="url(#paint12_linear_1_1094)"/>
<path d="M151.427 54.0984H148.491V83.7268H151.427V54.0984Z" fill="url(#paint13_linear_1_1094)"/>
<path d="M164.428 47.772H161.492V83.7268H164.428V47.772Z" fill="url(#paint14_linear_1_1094)"/>
<path d="M170.933 56.9048H167.997V83.735H170.933V56.9048Z" fill="url(#paint15_linear_1_1094)"/>
<path d="M174.372 84.0922H19.4656V27.593H20.0576V83.5001H174.372V84.0922Z" fill="white"/>
<text fill="#F5F7F6" xml:space="preserve" style="white-space: pre" font-family="Roboto" font-size="3.5177" letter-spacing="0em"><tspan x="24.2163" y="88.4033">DATA 01</tspan></text>
<text fill="#F5F7F6" xml:space="preserve" style="white-space: pre" font-family="Roboto" font-size="3.5177" letter-spacing="0em"><tspan x="42.9583" y="88.4033">DATA 02</tspan></text>
<text fill="#F5F7F6" xml:space="preserve" style="white-space: pre" font-family="Roboto" font-size="3.5177" letter-spacing="0em"><tspan x="61.802" y="88.4033">DATA 03</tspan></text>
<text fill="#F5F7F6" xml:space="preserve" style="white-space: pre" font-family="Roboto" font-size="3.5177" letter-spacing="0em"><tspan x="81.5735" y="88.4033">DATA 04</tspan></text>
<text fill="#F5F7F6" xml:space="preserve" style="white-space: pre" font-family="Roboto" font-size="3.5177" letter-spacing="0em"><tspan x="101.105" y="88.4033">DATA 05</tspan></text>
<text fill="#F5F7F6" xml:space="preserve" style="white-space: pre" font-family="Roboto" font-size="3.5177" letter-spacing="0em"><tspan x="120.463" y="88.4033">DATA 06</tspan></text>
<text fill="#F5F7F6" xml:space="preserve" style="white-space: pre" font-family="Roboto" font-size="3.5177" letter-spacing="0em"><tspan x="139.719" y="88.4033">DATA 07</tspan></text>
<text fill="#F5F7F6" xml:space="preserve" style="white-space: pre" font-family="Roboto" font-size="3.5177" letter-spacing="0em"><tspan x="158.667" y="88.4033">DATA 08</tspan></text>
</g>
<defs>
<linearGradient id="paint0_linear_1_1094" x1="26.451" y1="97.2673" x2="26.451" y2="37.3919" gradientUnits="userSpaceOnUse">
<stop stop-color="#27B7FF"/>
<stop offset="0.9899" stop-color="#F408AB"/>
</linearGradient>
<linearGradient id="paint1_linear_1_1094" x1="32.9517" y1="97.2671" x2="32.9517" y2="37.3917" gradientUnits="userSpaceOnUse">
<stop stop-color="#27B7FF"/>
<stop offset="0.9899" stop-color="#F408AB"/>
</linearGradient>
<linearGradient id="paint2_linear_1_1094" x1="45.9528" y1="97.2671" x2="45.9528" y2="37.3917" gradientUnits="userSpaceOnUse">
<stop stop-color="#27B7FF"/>
<stop offset="0.9899" stop-color="#F408AB"/>
</linearGradient>
<linearGradient id="paint3_linear_1_1094" x1="52.4533" y1="97.2672" x2="52.4533" y2="37.392" gradientUnits="userSpaceOnUse">
<stop stop-color="#27B7FF"/>
<stop offset="0.9899" stop-color="#F408AB"/>
</linearGradient>
<linearGradient id="paint4_linear_1_1094" x1="65.4545" y1="97.2673" x2="65.4545" y2="37.3921" gradientUnits="userSpaceOnUse">
<stop stop-color="#27B7FF"/>
<stop offset="0.9899" stop-color="#F408AB"/>
</linearGradient>
<linearGradient id="paint5_linear_1_1094" x1="71.9552" y1="97.2672" x2="71.9552" y2="37.3919" gradientUnits="userSpaceOnUse">
<stop stop-color="#27B7FF"/>
<stop offset="0.9899" stop-color="#F408AB"/>
</linearGradient>
<linearGradient id="paint6_linear_1_1094" x1="84.9563" y1="97.2672" x2="84.9563" y2="37.3919" gradientUnits="userSpaceOnUse">
<stop stop-color="#27B7FF"/>
<stop offset="0.9899" stop-color="#F408AB"/>
</linearGradient>
<linearGradient id="paint7_linear_1_1094" x1="91.4568" y1="97.2672" x2="91.4568" y2="37.3918" gradientUnits="userSpaceOnUse">
<stop stop-color="#27B7FF"/>
<stop offset="0.9899" stop-color="#F408AB"/>
</linearGradient>
<linearGradient id="paint8_linear_1_1094" x1="104.458" y1="97.2671" x2="104.458" y2="37.3919" gradientUnits="userSpaceOnUse">
<stop stop-color="#27B7FF"/>
<stop offset="0.9899" stop-color="#F408AB"/>
</linearGradient>
<linearGradient id="paint9_linear_1_1094" x1="110.958" y1="97.2674" x2="110.958" y2="37.392" gradientUnits="userSpaceOnUse">
<stop stop-color="#27B7FF"/>
<stop offset="0.9899" stop-color="#F408AB"/>
</linearGradient>
<linearGradient id="paint10_linear_1_1094" x1="123.96" y1="97.2673" x2="123.96" y2="37.3918" gradientUnits="userSpaceOnUse">
<stop stop-color="#27B7FF"/>
<stop offset="0.9899" stop-color="#F408AB"/>
</linearGradient>
<linearGradient id="paint11_linear_1_1094" x1="130.46" y1="97.2671" x2="130.46" y2="37.3918" gradientUnits="userSpaceOnUse">
<stop stop-color="#27B7FF"/>
<stop offset="0.9899" stop-color="#F408AB"/>
</linearGradient>
<linearGradient id="paint12_linear_1_1094" x1="143.461" y1="97.2672" x2="143.461" y2="37.3919" gradientUnits="userSpaceOnUse">
<stop stop-color="#27B7FF"/>
<stop offset="0.9899" stop-color="#F408AB"/>
</linearGradient>
<linearGradient id="paint13_linear_1_1094" x1="149.962" y1="97.2672" x2="149.962" y2="37.3918" gradientUnits="userSpaceOnUse">
<stop stop-color="#27B7FF"/>
<stop offset="0.9899" stop-color="#F408AB"/>
</linearGradient>
<linearGradient id="paint14_linear_1_1094" x1="162.963" y1="97.2672" x2="162.963" y2="37.3917" gradientUnits="userSpaceOnUse">
<stop stop-color="#27B7FF"/>
<stop offset="0.9899" stop-color="#F408AB"/>
</linearGradient>
<linearGradient id="paint15_linear_1_1094" x1="169.464" y1="97.2673" x2="169.464" y2="37.392" gradientUnits="userSpaceOnUse">
<stop stop-color="#27B7FF"/>
<stop offset="0.9899" stop-color="#F408AB"/>
</linearGradient>
<clipPath id="clip0_1_1094">
<rect width="1440" height="10784" fill="white" transform="translate(-802 -4237)"/>
</clipPath>
</defs>
</svg>
