<svg width="193" height="115" viewBox="0 0 193 115" fill="none" xmlns="http://www.w3.org/2000/svg">
<rect width="193" height="115" fill="#555555"/>
<g clip-path="url(#clip0_1_1094)">
<rect width="1440" height="10784" transform="translate(-624 -4058)" fill="black"/>
<rect width="192.224" height="114.361" rx="14.7953" fill="black"/>
<rect x="0.308235" y="0.308235" width="191.607" height="113.745" rx="14.4871" stroke="white" stroke-opacity="0.5" stroke-width="0.616471"/>
<path d="M31.8806 27.4746H31.4832V82.8464H31.8806V27.4746Z" fill="white"/>
<path d="M165.699 82.6516H31.5642V83.0491H165.699V82.6516Z" fill="white"/>
<path d="M165.699 71.5725H31.5642V71.97H165.699V71.5725Z" fill="white"/>
<path d="M165.699 60.5015H31.5642V60.8989H165.699V60.5015Z" fill="white"/>
<path d="M165.699 49.4302H31.5642V49.8276H165.699V49.4302Z" fill="white"/>
<path d="M165.699 38.3511H31.5642V38.7485H165.699V38.3511Z" fill="white"/>
<path d="M165.699 27.2798H31.5645V27.6772H165.699V27.2798Z" fill="white"/>
<path d="M48.6374 27.4746H48.24V82.8464H48.6374V27.4746Z" fill="white"/>
<path d="M65.394 27.4746H64.9966V82.8464H65.394V27.4746Z" fill="white"/>
<path d="M82.1508 27.4746H81.7534V82.8464H82.1508V27.4746Z" fill="white"/>
<path d="M98.9074 27.4746H98.51V82.8464H98.9074V27.4746Z" fill="white"/>
<path d="M115.664 27.4746H115.267V82.8464H115.664V27.4746Z" fill="white"/>
<path d="M132.421 27.4746H132.023V82.8464H132.421V27.4746Z" fill="white"/>
<path d="M149.178 27.4746H148.78V82.8464H149.178V27.4746Z" fill="white"/>
<path d="M165.934 27.4746H165.537V82.8464H165.934V27.4746Z" fill="white"/>
<path d="M32.132 60.2092L49.0023 48.2216L65.0858 60.0065H82.3535L99.2319 37.0451L115.307 48.2216L132.583 36.8423H165.732V82.8381H31.7021L32.132 60.2092Z" fill="url(#paint0_linear_1_1094)"/>
<path d="M165.732 82.8379V48.1565H149.851L132.916 59.8035L115.705 36.769L99.0292 48.9676H82.3535L65.1507 72.002L49.0023 59.8035L31.7833 71.7262L31.7021 82.8379H165.732Z" fill="url(#paint1_linear_1_1094)"/>
<path d="M36.3404 85.7211H36.6511V87.3808C36.6511 87.6051 36.5835 87.7805 36.4483 87.9072C36.3142 88.0338 36.1349 88.0971 35.9106 88.0971C35.6778 88.0971 35.4964 88.0376 35.3665 87.9185C35.2367 87.7993 35.1717 87.6324 35.1717 87.4178H35.4808C35.4808 87.552 35.5173 87.6566 35.5903 87.7317C35.6643 87.8068 35.7711 87.8444 35.9106 87.8444C36.0383 87.8444 36.1414 87.8042 36.2197 87.7237C36.2991 87.6432 36.3394 87.5305 36.3404 87.3856V85.7211ZM38.4364 87.4532H37.4544L37.2339 88.0649H36.9151L37.8102 85.7211H38.0806L38.9773 88.0649H38.6602L38.4364 87.4532ZM37.5478 87.1989H38.3446L37.9454 86.1026L37.5478 87.1989ZM41.0941 88.0649H40.7835L39.6035 86.2588V88.0649H39.2928V85.7211H39.6035L40.7867 87.5353V85.7211H41.0941V88.0649Z" fill="#F5F7F6"/>
<path d="M53.7537 87.0298H52.7701V88.0649H52.461V85.7211H53.913V85.9754H52.7701V86.7771H53.7537V87.0298ZM55.6081 86.9816H54.5924V87.8122H55.7723V88.0649H54.2833V85.7211H55.7562V85.9754H54.5924V86.7288H55.6081V86.9816ZM56.1571 88.0649V85.7211H56.9233C57.1777 85.7211 57.3687 85.7737 57.4964 85.8789C57.6252 85.984 57.6896 86.1396 57.6896 86.3457C57.6896 86.4552 57.6585 86.5523 57.5962 86.6371C57.534 86.7208 57.4492 86.7857 57.3419 86.8318C57.4685 86.8673 57.5683 86.9349 57.6413 87.0347C57.7154 87.1334 57.7524 87.2515 57.7524 87.3888C57.7524 87.5992 57.6842 87.7644 57.5479 87.8846C57.4116 88.0048 57.219 88.0649 56.97 88.0649H56.1571ZM56.4662 86.9687V87.8122H56.9765C57.1203 87.8122 57.2335 87.7752 57.3161 87.7011C57.3998 87.626 57.4417 87.523 57.4417 87.3921C57.4417 87.1098 57.2882 86.9687 56.9813 86.9687H56.4662ZM56.4662 86.7208H56.933C57.0682 86.7208 57.1761 86.687 57.2566 86.6194C57.3381 86.5517 57.3789 86.46 57.3789 86.3441C57.3789 86.2153 57.3414 86.1219 57.2662 86.064C57.1911 86.005 57.0768 85.9754 56.9233 85.9754H56.4662V86.7208Z" fill="#F5F7F6"/>
<path d="M70.7865 85.7211L71.5528 87.6335L72.319 85.7211H72.7199V88.0649H72.4108V87.1522L72.4398 86.167L71.6703 88.0649H71.4336L70.6658 86.1718L70.6964 87.1522V88.0649H70.3873V85.7211H70.7865ZM74.5888 87.4532H73.6069L73.3863 88.0649H73.0676L73.9626 85.7211H74.2331L75.1297 88.0649H74.8126L74.5888 87.4532ZM73.7002 87.1989H74.4971L74.0978 86.1026L73.7002 87.1989ZM76.3049 87.1168H75.7543V88.0649H75.4436V85.7211H76.2195C76.4835 85.7211 76.6864 85.7812 76.828 85.9014C76.9708 86.0216 77.0421 86.1965 77.0421 86.4262C77.0421 86.5721 77.0024 86.6993 76.923 86.8077C76.8447 86.9161 76.7352 86.9971 76.5946 87.0508L77.1452 88.0456V88.0649H76.8136L76.3049 87.1168ZM75.7543 86.864H76.2292C76.3827 86.864 76.5045 86.8243 76.5946 86.7449C76.6858 86.6655 76.7315 86.5593 76.7315 86.4262C76.7315 86.2813 76.688 86.1702 76.6011 86.093C76.5152 86.0157 76.3907 85.9765 76.2276 85.9754H75.7543V86.864Z" fill="#F5F7F6"/>
<path d="M88.7843 87.4532H87.8024L87.5818 88.0649H87.2631L88.1581 85.7211H88.4286L89.3252 88.0649H89.0081L88.7843 87.4532ZM87.8957 87.1989H88.6926L88.2934 86.1026L87.8957 87.1989ZM89.9498 87.1474V88.0649H89.6407V85.7211H90.5052C90.7617 85.7211 90.9624 85.7866 91.1073 85.9175C91.2532 86.0484 91.3262 86.2217 91.3262 86.4374C91.3262 86.665 91.2548 86.8404 91.1121 86.9638C90.9704 87.0862 90.7671 87.1474 90.502 87.1474H89.9498ZM89.9498 86.8946H90.5052C90.6705 86.8946 90.7971 86.856 90.8851 86.7787C90.9731 86.7004 91.0171 86.5877 91.0171 86.4407C91.0171 86.3012 90.9731 86.1895 90.8851 86.1058C90.7971 86.0221 90.6764 85.9787 90.5229 85.9754H89.9498V86.8946ZM92.5802 87.1168H92.0297V88.0649H91.719V85.7211H92.4949C92.7589 85.7211 92.9617 85.7812 93.1034 85.9014C93.2461 86.0216 93.3175 86.1965 93.3175 86.4262C93.3175 86.5721 93.2778 86.6993 93.1984 86.8077C93.12 86.9161 93.0106 86.9971 92.87 87.0508L93.4205 88.0456V88.0649H93.0889L92.5802 87.1168ZM92.0297 86.864H92.5046C92.658 86.864 92.7798 86.8243 92.87 86.7449C92.9612 86.6655 93.0068 86.5593 93.0068 86.4262C93.0068 86.2813 92.9633 86.1702 92.8764 86.093C92.7906 86.0157 92.6661 85.9765 92.5029 85.9754H92.0297V86.864Z" fill="#F5F7F6"/>
<path d="M106.64 85.7211L107.406 87.6335L108.173 85.7211H108.573V88.0649H108.264V87.1522L108.293 86.167L107.524 88.0649H107.287L106.519 86.1718L106.55 87.1522V88.0649H106.241V85.7211H106.64ZM110.442 87.4532H109.46L109.24 88.0649H108.921L109.816 85.7211H110.087L110.983 88.0649H110.666L110.442 87.4532ZM109.554 87.1989H110.351L109.951 86.1026L109.554 87.1989ZM111.862 86.8978L112.474 85.7211H112.825L112.017 87.1908V88.0649H111.708V87.1908L110.9 85.7211H111.254L111.862 86.8978Z" fill="#F5F7F6"/>
<path d="M124.325 85.7211H124.636V87.3808C124.636 87.6051 124.568 87.7805 124.433 87.9072C124.299 88.0338 124.12 88.0971 123.895 88.0971C123.663 88.0971 123.481 88.0376 123.351 87.9185C123.222 87.7993 123.157 87.6324 123.157 87.4178H123.466C123.466 87.552 123.502 87.6566 123.575 87.7317C123.649 87.8068 123.756 87.8444 123.895 87.8444C124.023 87.8444 124.126 87.8042 124.205 87.7237C124.284 87.6432 124.324 87.5305 124.325 87.3856V85.7211ZM126.812 85.7211V87.3148C126.811 87.5359 126.742 87.7167 126.603 87.8573C126.466 87.9979 126.279 88.0767 126.043 88.0939L125.961 88.0971C125.704 88.0971 125.5 88.0279 125.348 87.8895C125.195 87.751 125.118 87.5605 125.116 87.318V85.7211H125.422V87.3083C125.422 87.4779 125.468 87.6099 125.562 87.7043C125.655 87.7977 125.788 87.8444 125.961 87.8444C126.136 87.8444 126.269 87.7977 126.362 87.7043C126.455 87.611 126.502 87.4795 126.502 87.31V85.7211H126.812ZM129.102 88.0649H128.791L127.611 86.2588V88.0649H127.3V85.7211H127.611L128.794 87.5353V85.7211H129.102V88.0649Z" fill="#F5F7F6"/>
<path d="M142.252 85.7211H142.563V87.3808C142.563 87.6051 142.495 87.7805 142.36 87.9072C142.226 88.0338 142.047 88.0971 141.822 88.0971C141.589 88.0971 141.408 88.0376 141.278 87.9185C141.148 87.7993 141.083 87.6324 141.083 87.4178H141.392C141.392 87.552 141.429 87.6566 141.502 87.7317C141.576 87.8068 141.683 87.8444 141.822 87.8444C141.95 87.8444 142.053 87.8042 142.131 87.7237C142.211 87.6432 142.251 87.5305 142.252 87.3856V85.7211ZM144.739 85.7211V87.3148C144.738 87.5359 144.668 87.7167 144.53 87.8573C144.393 87.9979 144.206 88.0767 143.97 88.0939L143.888 88.0971C143.631 88.0971 143.427 88.0279 143.274 87.8895C143.122 87.751 143.045 87.5605 143.042 87.318V85.7211H143.348V87.3083C143.348 87.4779 143.395 87.6099 143.488 87.7043C143.582 87.7977 143.715 87.8444 143.888 87.8444C144.063 87.8444 144.196 87.7977 144.288 87.7043C144.382 87.611 144.429 87.4795 144.429 87.31V85.7211H144.739ZM145.538 87.8122H146.648V88.0649H145.227V85.7211H145.538V87.8122Z" fill="#F5F7F6"/>
<path d="M159.667 87.4532H158.685L158.464 88.0649H158.146L159.041 85.7211H159.311L160.208 88.0649H159.891L159.667 87.4532ZM158.778 87.1989H159.575L159.176 86.1026L158.778 87.1989ZM162.144 85.7211V87.3148C162.143 87.5359 162.074 87.7167 161.935 87.8573C161.798 87.9979 161.611 88.0767 161.375 88.0939L161.293 88.0971C161.036 88.0971 160.832 88.0279 160.679 87.8895C160.527 87.751 160.45 87.5605 160.448 87.318V85.7211H160.754V87.3083C160.754 87.4779 160.8 87.6099 160.894 87.7043C160.987 87.7977 161.12 87.8444 161.293 87.8444C161.468 87.8444 161.601 87.7977 161.694 87.7043C161.787 87.611 161.834 87.4795 161.834 87.31V85.7211H162.144ZM164.363 87.7575C164.283 87.8712 164.172 87.9565 164.029 88.0134C163.888 88.0692 163.722 88.0971 163.534 88.0971C163.343 88.0971 163.173 88.0526 163.025 87.9635C162.877 87.8734 162.762 87.7457 162.68 87.5804C162.6 87.4151 162.559 87.2236 162.556 87.0057V86.8013C162.556 86.4482 162.639 86.1745 162.803 85.9803C162.968 85.786 163.2 85.6889 163.498 85.6889C163.743 85.6889 163.94 85.7517 164.089 85.8772C164.238 86.0017 164.329 86.1788 164.363 86.4085H164.054C163.996 86.0983 163.811 85.9432 163.5 85.9432C163.293 85.9432 163.135 86.0162 163.028 86.1622C162.922 86.3071 162.868 86.5174 162.867 86.7932V86.9848C162.867 87.2477 162.927 87.457 163.047 87.6126C163.168 87.7671 163.33 87.8444 163.535 87.8444C163.651 87.8444 163.753 87.8315 163.839 87.8058C163.926 87.78 163.998 87.7365 164.055 87.6754V87.149H163.513V86.8978H164.363V87.7575Z" fill="#F5F7F6"/>
<path d="M27.6189 82.1854C27.6189 82.5342 27.5593 82.7933 27.4402 82.9629C27.3211 83.1325 27.1349 83.2173 26.8816 83.2173C26.6315 83.2173 26.4464 83.1346 26.3262 82.9693C26.206 82.803 26.1438 82.5551 26.1395 82.2256V81.828C26.1395 81.4835 26.199 81.2276 26.3182 81.0601C26.4373 80.8927 26.624 80.809 26.8784 80.809C27.1306 80.809 27.3162 80.89 27.4353 81.0521C27.5545 81.2131 27.6156 81.4621 27.6189 81.799V82.1854ZM27.3211 81.7781C27.3211 81.5259 27.2856 81.3424 27.2148 81.2276C27.144 81.1117 27.0318 81.0537 26.8784 81.0537C26.726 81.0537 26.6149 81.1111 26.5451 81.2259C26.4754 81.3408 26.4394 81.5173 26.4373 81.7556V82.2321C26.4373 82.4853 26.4738 82.6726 26.5467 82.7939C26.6208 82.9141 26.7324 82.9742 26.8816 82.9742C27.0286 82.9742 27.1375 82.9173 27.2084 82.8035C27.2803 82.6898 27.3178 82.5106 27.3211 82.2659V81.7781Z" fill="#F5F7F6"/>
<path d="M27.1279 73.0237H26.8285V71.0388L26.228 71.2594V70.9889L27.0812 70.6686H27.1279V73.0237ZM29.4701 72.024C29.4701 72.3728 29.4106 72.632 29.2914 72.8015C29.1723 72.9711 28.9861 73.0559 28.7328 73.0559C28.4828 73.0559 28.2977 72.9732 28.1775 72.808C28.0573 72.6416 27.995 72.3937 27.9907 72.0642V71.6666C27.9907 71.3221 28.0503 71.0662 28.1694 70.8988C28.2885 70.7313 28.4753 70.6476 28.7296 70.6476C28.9818 70.6476 29.1675 70.7287 29.2866 70.8907C29.4057 71.0517 29.4669 71.3007 29.4701 71.6377V72.024ZM29.1723 71.6167C29.1723 71.3645 29.1369 71.181 29.0661 71.0662C28.9952 70.9503 28.8831 70.8923 28.7296 70.8923C28.5772 70.8923 28.4661 70.9497 28.3964 71.0646C28.3266 71.1794 28.2907 71.3559 28.2885 71.5942V72.0707C28.2885 72.324 28.325 72.5112 28.398 72.6325C28.4721 72.7527 28.5837 72.8128 28.7328 72.8128C28.8799 72.8128 28.9888 72.7559 29.0596 72.6422C29.1315 72.5284 29.1691 72.3492 29.1723 72.1045V71.6167Z" fill="#F5F7F6"/>
<path d="M27.1279 61.5049H26.8285V59.52L26.228 59.7406V59.4701L27.0812 59.1498H27.1279V61.5049ZM28.9791 61.5049H28.6797V59.52L28.0793 59.7406V59.4701L28.9324 59.1498H28.9791V61.5049Z" fill="#F5F7F6"/>
<path d="M27.1279 50.7471H26.8285V48.7622L26.228 48.9827V48.7123L27.0812 48.392H27.1279V50.7471ZM29.5361 50.7471H28.0004V50.533L28.8117 49.6315C28.9319 49.4952 29.0145 49.3847 29.0596 49.2999C29.1058 49.214 29.1288 49.1255 29.1288 49.0343C29.1288 48.9119 29.0918 48.8116 29.0178 48.7332C28.9437 48.6549 28.845 48.6157 28.7216 48.6157C28.5735 48.6157 28.4581 48.6581 28.3755 48.7429C28.2939 48.8266 28.2531 48.9436 28.2531 49.0938H27.9553C27.9553 48.8781 28.0245 48.7037 28.163 48.5706C28.3025 48.4376 28.4887 48.371 28.7216 48.371C28.9394 48.371 29.1117 48.4284 29.2383 48.5433C29.3649 48.657 29.4283 48.8089 29.4283 48.9988C29.4283 49.2296 29.2812 49.5043 28.9872 49.8231L28.3594 50.504H29.5361V50.7471Z" fill="#F5F7F6"/>
<path d="M27.1279 40.2075H26.8285V38.2227L26.228 38.4432V38.1728L27.0812 37.8524H27.1279V40.2075ZM28.4334 38.8907H28.6572C28.7978 38.8886 28.9083 38.8515 28.9888 38.7796C29.0693 38.7077 29.1095 38.6106 29.1095 38.4883C29.1095 38.2135 28.9727 38.0762 28.699 38.0762C28.5702 38.0762 28.4672 38.1132 28.39 38.1872C28.3138 38.2602 28.2757 38.3573 28.2757 38.4786H27.9778C27.9778 38.2929 28.0455 38.1389 28.1807 38.0166C28.317 37.8932 28.4898 37.8315 28.699 37.8315C28.9201 37.8315 29.0934 37.89 29.219 38.0069C29.3446 38.1239 29.4073 38.2865 29.4073 38.4947C29.4073 38.5967 29.3741 38.6954 29.3075 38.7909C29.2421 38.8864 29.1525 38.9578 29.0387 39.005C29.1675 39.0458 29.2667 39.1134 29.3365 39.2078C29.4073 39.3023 29.4428 39.4177 29.4428 39.5539C29.4428 39.7643 29.3741 39.9312 29.2367 40.0546C29.0993 40.178 28.9206 40.2397 28.7006 40.2397C28.4806 40.2397 28.3014 40.1802 28.163 40.061C28.0256 39.9419 27.9569 39.7847 27.9569 39.5894H28.2563C28.2563 39.7128 28.2966 39.8115 28.3771 39.8856C28.4576 39.9596 28.5654 39.9966 28.7006 39.9966C28.8444 39.9966 28.9544 39.9591 29.0306 39.884C29.1068 39.8088 29.1449 39.701 29.1449 39.5604C29.1449 39.4241 29.1031 39.3195 29.0194 39.2465C28.9357 39.1735 28.8149 39.1359 28.6572 39.1338H28.4334V38.8907Z" fill="#F5F7F6"/>
<path d="M27.1279 28.9541H26.8285V26.9692L26.228 27.1898V26.9193L27.0812 26.599H27.1279V28.9541ZM29.2576 28.1669H29.5828V28.41H29.2576V28.9541H28.9582V28.41H27.8909V28.2345L28.9405 26.6103H29.2576V28.1669ZM28.229 28.1669H28.9582V27.0175L28.9228 27.0819L28.229 28.1669Z" fill="#F5F7F6"/>
</g>
<defs>
<linearGradient id="paint0_linear_1_1094" x1="98.7178" y1="80.7927" x2="98.7178" y2="18.7513" gradientUnits="userSpaceOnUse">
<stop stop-color="#27B7FF"/>
<stop offset="0.895833" stop-color="#F408AB"/>
</linearGradient>
<linearGradient id="paint1_linear_1_1094" x1="98.7178" y1="105.397" x2="98.7178" y2="40.2848" gradientUnits="userSpaceOnUse">
<stop offset="0.000116" stop-color="#0055CB"/>
<stop offset="0.3594" stop-color="#0077CE"/>
<stop offset="0.6484" stop-color="#0066FF"/>
<stop offset="0.8709" stop-color="#0066FF"/>
<stop offset="1" stop-color="#0066FF"/>
</linearGradient>
<clipPath id="clip0_1_1094">
<rect width="1440" height="10784" fill="white" transform="translate(-624 -4058)"/>
</clipPath>
</defs>
</svg>
