<svg width="183" height="194" viewBox="0 0 183 194" fill="none" xmlns="http://www.w3.org/2000/svg">
<rect width="183" height="194" fill="#555555"/>
<g clip-path="url(#clip0_1_1094)">
<rect width="1440" height="10784" transform="translate(-1093 -3993)" fill="black"/>
<rect width="182.491" height="193.035" rx="14.7953" fill="black"/>
<rect x="0.308235" y="0.308235" width="181.875" height="192.418" rx="14.4871" stroke="white" stroke-opacity="0.5" stroke-width="0.616471"/>
<path d="M107.443 29.1987C100.654 29.1987 94.0843 30.1071 87.8228 31.7779C81.3424 33.5055 75.2188 36.0847 69.5413 39.3615C63.7908 42.6868 58.5026 46.7341 53.839 51.3977C49.1753 56.0614 45.1281 61.3577 41.7946 67.1082C38.5097 72.7776 35.9386 78.9093 34.211 85.3897C32.5402 91.6512 31.6318 98.2209 31.6318 105.01H40.4482C40.4482 99.0157 41.2511 93.2084 42.7354 87.6688C44.2683 81.9508 46.5474 76.5328 49.4511 71.5285C52.3953 66.4512 55.9721 61.7795 60.0923 57.6592C64.2126 53.539 68.8843 49.9621 73.9616 47.018C78.974 44.1143 84.3839 41.8352 90.1019 40.3023C95.6334 38.818 101.449 38.0151 107.443 38.0151V29.1987Z" fill="url(#paint0_radial_1_1094)"/>
<path d="M90.102 40.3024C84.384 41.8353 78.966 44.1144 73.9617 47.018C68.8844 49.9622 64.2126 53.539 60.0924 57.6593C55.9721 61.7795 52.3953 66.4513 49.4511 71.5286C46.5475 76.541 44.2684 81.9509 42.7355 87.6689C41.2512 93.2004 40.4482 99.0158 40.4482 105.01C40.4482 111.003 41.2512 116.811 42.7355 122.35C44.2684 128.068 46.5475 133.486 49.4511 138.491C52.3953 143.568 55.9721 148.24 60.0924 152.36L66.3214 146.131C62.7365 142.546 59.6382 138.499 57.0833 134.086C54.5609 129.739 52.5819 125.035 51.2517 120.063C49.9621 115.262 49.2646 110.209 49.2646 105.01C49.2646 99.8025 49.9621 94.7577 51.2517 89.9561C52.5819 84.9924 54.5609 80.2882 57.0833 75.9327C59.6382 71.5205 62.7446 67.4732 66.3214 63.8883C69.9063 60.3034 73.9536 57.2051 78.3658 54.6502C82.7132 52.1278 87.4174 50.1488 92.3892 48.8186C97.1908 47.529 102.244 46.8315 107.443 46.8315V38.0151C101.449 38.0151 95.6416 38.8181 90.102 40.3024Z" fill="url(#paint1_linear_1_1094)"/>
<path d="M59.7597 92.2353C60.8871 88.0177 62.566 84.0354 64.7072 80.3369C66.8728 76.5978 69.5087 73.1589 72.5503 70.1174C75.5918 67.0759 79.0307 64.448 82.7697 62.2743C86.4601 60.1331 90.4506 58.4542 94.6682 57.3268C98.7478 56.2319 103.03 55.6398 107.443 55.6398V46.8315C102.235 46.8315 97.1906 47.5291 92.389 48.8187C87.4253 50.1488 82.7211 52.1278 78.3656 54.6503C73.9534 57.2051 69.9062 60.3115 66.3212 63.8884C62.7363 67.4733 59.638 71.5205 57.0831 75.9328C54.5607 80.2801 52.5817 84.9843 51.2515 89.9562C49.9619 94.7577 49.2644 99.8026 49.2644 105.01C49.2644 110.217 49.9619 115.262 51.2515 120.063C52.5817 125.027 54.5607 129.731 57.0831 134.087C59.638 138.499 62.7444 142.546 66.3212 146.131C69.9062 149.716 73.9534 152.814 78.3656 155.369C82.713 157.891 87.4172 159.871 92.389 161.201C97.1987 162.49 102.244 163.188 107.443 163.188V154.38C103.022 154.38 98.7478 153.787 94.6682 152.693C90.4506 151.565 86.4682 149.886 82.7697 147.745C79.0307 145.579 75.5918 142.943 72.5503 139.902C69.5087 136.86 66.8809 133.421 64.7072 129.682C62.566 125.992 60.8871 122.002 59.7597 117.784C58.6647 113.704 58.0726 109.422 58.0726 105.01C58.0726 100.589 58.6647 96.315 59.7597 92.2353Z" fill="url(#paint2_radial_1_1094)"/>
<path d="M142.546 125.278C140.761 128.352 138.604 131.175 136.106 133.673C133.608 136.171 130.785 138.336 127.711 140.113C124.678 141.873 121.401 143.252 117.938 144.176C114.588 145.076 111.076 145.563 107.443 145.563C103.817 145.563 100.297 145.076 96.9474 144.176C93.4841 143.252 90.2074 141.873 87.174 140.113C84.1 138.328 81.2775 136.171 78.7794 133.673C76.2813 131.175 74.1238 128.352 72.3395 125.278C70.5795 122.245 69.2006 118.968 68.276 115.505C67.3757 112.155 66.8891 108.635 66.8891 105.01C66.8891 101.384 67.3757 97.864 68.276 94.5143C69.2006 91.051 70.5795 87.7743 72.3395 84.7409C74.1238 81.6669 76.2813 78.8444 78.7794 76.3463C81.2775 73.8482 84.1 71.6907 87.174 69.9064C90.2074 68.1464 93.4841 66.7675 96.9474 65.8429C100.297 64.9426 103.817 64.456 107.443 64.456V55.6396C103.022 55.6396 98.748 56.2317 94.6683 57.3267C90.4507 58.4541 86.4683 60.133 82.7699 62.2742C79.0308 64.4398 75.5919 67.0758 72.5504 70.1173C69.5089 73.1588 66.881 76.5977 64.7073 80.3368C62.5661 84.0271 60.8872 88.0176 59.7598 92.2352C58.6648 96.3149 58.0728 100.597 58.0728 105.01C58.0728 109.43 58.6648 113.704 59.7598 117.784C60.8872 122.001 62.5661 125.984 64.7073 129.682C66.8729 133.421 69.5089 136.86 72.5504 139.902C75.5919 142.943 79.0308 145.571 82.7699 147.745C86.4602 149.886 90.4507 151.565 94.6683 152.692C98.748 153.787 103.03 154.379 107.443 154.379C111.863 154.379 116.137 153.787 120.217 152.692C124.435 151.565 128.417 149.886 132.115 147.745C135.854 145.579 139.293 142.943 142.335 139.902C145.376 136.86 148.004 133.421 150.178 129.682L142.546 125.278Z" fill="url(#paint3_linear_1_1094)"/>
<path d="M139.18 105.01C139.18 107.848 138.799 110.598 138.093 113.226C137.363 115.935 136.284 118.498 134.914 120.874C133.519 123.283 131.823 125.489 129.877 127.444C127.922 129.399 125.716 131.094 123.307 132.489C120.931 133.868 118.368 134.946 115.659 135.668C113.039 136.374 110.29 136.755 107.443 136.755C104.604 136.755 101.854 136.374 99.2265 135.668C96.5175 134.938 93.9545 133.859 91.5781 132.489C89.1692 131.094 86.9631 129.399 85.0084 127.452C83.0538 125.505 81.3586 123.283 79.9717 120.882C78.5929 118.506 77.5141 115.943 76.7923 113.234C76.0866 110.614 75.7054 107.865 75.7054 105.018C75.7054 102.179 76.0866 99.4294 76.7923 96.8016C77.5222 94.0926 78.601 91.5296 79.9717 89.1532C81.3667 86.7443 83.0619 84.5382 85.0165 82.5835C86.9712 80.6288 89.1773 78.9337 91.5862 77.5467C93.9627 76.1679 96.5256 75.0892 99.2346 74.3673C101.854 73.6617 104.604 73.2805 107.451 73.2805V64.4561C103.825 64.4561 100.305 64.9427 96.9555 65.843C93.4922 66.7676 90.2155 68.1464 87.1821 69.9064C84.1081 71.6908 81.2856 73.8483 78.7875 76.3464C76.2894 78.8445 74.132 81.667 72.3476 84.7409C70.5876 87.7743 69.2088 91.0511 68.2841 94.5143C67.3839 97.8641 66.8972 101.376 66.8972 105.01C66.8972 108.635 67.3839 112.155 68.2841 115.505C69.2088 118.968 70.5876 122.245 72.3476 125.278C74.132 128.352 76.2894 131.175 78.7875 133.673C81.2856 136.171 84.1081 138.328 87.1821 140.113C90.2155 141.873 93.4922 143.252 96.9555 144.176C100.305 145.077 103.825 145.563 107.451 145.563C111.076 145.563 114.596 145.077 117.946 144.176C121.409 143.252 124.686 141.873 127.719 140.113C130.793 138.328 133.616 136.171 136.114 133.673C138.612 131.175 140.77 128.352 142.554 125.278C144.314 122.245 145.693 118.968 146.617 115.505C147.518 112.155 148.004 108.643 148.004 105.01H139.18V105.01Z" fill="url(#paint4_radial_1_1094)"/>
<path opacity="0.77" d="M145.149 104.434C144.419 101.725 143.341 99.1617 141.97 96.7853C140.575 94.3764 138.88 92.1703 136.933 90.2156C134.978 88.2609 132.772 86.5658 130.363 85.1788C127.987 83.8 125.424 82.7213 122.715 81.9994C120.095 81.2938 117.346 80.9126 114.499 80.9126C111.66 80.9126 108.911 81.2938 106.283 81.9994C103.574 82.7294 101.011 83.8081 98.6344 85.1788C96.2255 86.5739 94.0194 88.269 92.0647 90.2156C90.11 92.1703 88.4149 94.3764 87.028 96.7853C85.6491 99.1617 84.5704 101.725 83.8486 104.434C83.1429 107.053 82.7617 109.803 82.7617 112.65C82.7617 115.489 83.1429 118.238 83.8486 120.866C84.5785 123.575 85.6572 126.138 87.028 128.514C88.423 130.923 90.1181 133.129 92.0647 135.084C94.0113 137.039 96.2336 138.734 98.6344 140.121C101.011 141.5 103.574 142.578 106.283 143.3C108.903 144.006 111.652 144.387 114.499 144.387C117.338 144.387 120.087 144.006 122.715 143.3C125.424 142.57 127.987 141.491 130.363 140.121C132.772 138.726 134.978 137.031 136.933 135.076C138.888 133.121 140.583 130.915 141.97 128.506C143.349 126.13 144.427 123.567 145.149 120.858C145.855 118.238 146.236 115.489 146.236 112.642C146.236 109.811 145.855 107.062 145.149 104.434Z" fill="url(#paint5_radial_1_1094)"/>
<path d="M138.093 96.7935C137.363 94.0845 136.284 91.5216 134.914 89.1451C133.519 86.7362 131.823 84.5301 129.877 82.5754C127.922 80.6208 125.716 78.9256 123.307 77.5387C120.931 76.1599 118.368 75.0811 115.659 74.3593C113.039 73.6537 110.289 73.2725 107.443 73.2725C104.604 73.2725 101.854 73.6537 99.2264 74.3593C96.5175 75.0893 93.9545 76.168 91.578 77.5387C89.1692 78.9337 86.963 80.6289 85.0084 82.5754C83.0537 84.5301 81.3585 86.7362 79.9635 89.1451C78.5847 91.5216 77.506 94.0845 76.7841 96.7935C76.0785 99.4133 75.6973 102.163 75.6973 105.01C75.6973 107.848 76.0785 110.598 76.7841 113.226C77.5141 115.935 78.5928 118.498 79.9635 120.874C81.3585 123.283 83.0537 125.489 85.0003 127.444C86.9468 129.399 89.161 131.094 91.5699 132.481C93.9464 133.859 96.5093 134.938 99.2183 135.66C101.838 136.366 104.588 136.747 107.434 136.747C110.273 136.747 113.023 136.366 115.651 135.66C118.36 134.93 120.923 133.851 123.299 132.481C125.708 131.086 127.914 129.39 129.869 127.436C131.823 125.481 133.519 123.275 134.905 120.866C136.284 118.49 137.363 115.927 138.085 113.218C138.79 110.598 139.172 107.848 139.172 105.002C139.18 102.171 138.799 99.4214 138.093 96.7935Z" fill="url(#paint6_linear_1_1094)"/>
<path d="M130.931 98.7154C130.372 96.639 129.544 94.6762 128.49 92.8594C127.419 91.0183 126.122 89.3232 124.629 87.8227C123.129 86.3222 121.442 85.0326 119.592 83.962C117.776 82.9076 115.813 82.0803 113.737 81.5206C111.725 80.9853 109.616 80.6934 107.443 80.6934C105.269 80.6934 103.16 80.9853 101.149 81.5206C99.0724 82.0803 97.1096 82.9076 95.2928 83.962C93.4516 85.0326 91.7565 86.3303 90.256 87.8227C88.7555 89.3232 87.4659 91.0102 86.3953 92.8594C85.3409 94.6762 84.5136 96.639 83.954 98.7154C83.4187 100.727 83.1267 102.836 83.1267 105.009C83.1267 107.183 83.4187 109.292 83.954 111.303C84.5136 113.38 85.3409 115.342 86.3953 117.159C87.4659 119 88.7637 120.695 90.256 122.196C91.7565 123.696 93.4435 124.986 95.2928 126.057C97.1096 127.111 99.0724 127.938 101.149 128.498C103.16 129.033 105.269 129.325 107.443 129.325C109.616 129.325 111.725 129.033 113.737 128.498C115.813 127.938 117.776 127.111 119.592 126.057C121.434 124.986 123.129 123.688 124.629 122.196C126.13 120.695 127.419 119.008 128.49 117.159C129.544 115.342 130.372 113.38 130.931 111.303C131.467 109.292 131.759 107.183 131.759 105.009C131.759 102.836 131.467 100.727 130.931 98.7154Z" fill="#F5F7F6"/>
<path d="M130.874 35.801L134.841 33.5381L130.874 31.2671V33.311H111.701V33.7571H130.874V35.801Z" fill="#F5F7F6"/>
<path d="M130.874 42.2004H111.701V42.6465H130.874V44.585L134.841 42.314L130.874 40.043V42.2004Z" fill="#F5F7F6"/>
<path d="M130.874 51.0574H111.701V51.4954H130.874V53.5474L134.841 51.2764L130.874 49.0054V51.0574Z" fill="#F5F7F6"/>
<path d="M130.874 60.4172H111.701V60.8633H130.874V62.6882L134.841 60.4172L130.874 58.1543V60.4172Z" fill="#F5F7F6"/>
<path d="M130.874 69.4526H111.701V69.8987H130.874V71.9507L134.841 69.6797L130.874 67.4087V69.4526Z" fill="#F5F7F6"/>
<text fill="#F5F7F6" xml:space="preserve" style="white-space: pre" font-family="Roboto" font-size="5.46297" letter-spacing="0em"><tspan x="138.445" y="70.6368">75%</tspan></text>
<text fill="#F5F7F6" xml:space="preserve" style="white-space: pre" font-family="Roboto" font-size="5.46297" letter-spacing="0em"><tspan x="138.445" y="61.9112">60%</tspan></text>
<text fill="#F5F7F6" xml:space="preserve" style="white-space: pre" font-family="Roboto" font-size="5.46297" letter-spacing="0em"><tspan x="138.445" y="53.0342">50%</tspan></text>
<text fill="#F5F7F6" xml:space="preserve" style="white-space: pre" font-family="Roboto" font-size="5.46297" letter-spacing="0em"><tspan x="138.445" y="43.6255">30%</tspan></text>
<text fill="#F5F7F6" xml:space="preserve" style="white-space: pre" font-family="Roboto" font-size="5.46297" letter-spacing="0em"><tspan x="138.445" y="34.066">15%</tspan></text>
<path d="M111.021 99.7582C108.97 98.1282 106.063 98.1011 104.093 99.7039C102.68 100.845 101.974 102.556 101.974 104.77C101.974 106.237 103.292 108.343 103.455 108.615C103.468 108.628 104.555 110.095 104.813 111.847L104.881 112.282H110.355L110.423 111.847C110.681 110.095 111.768 108.628 111.795 108.587C111.944 108.356 113.262 106.251 113.262 104.784C113.248 102.611 112.501 100.926 111.021 99.7582ZM107.503 102.638C106.579 102.665 105.737 103.236 105.384 104.091C105.302 104.281 105.112 104.404 104.908 104.404C104.84 104.404 104.772 104.39 104.704 104.363C104.446 104.254 104.324 103.955 104.433 103.697C104.949 102.475 106.144 101.66 107.462 101.619C107.733 101.606 107.978 101.836 107.978 102.122C108.005 102.393 107.788 102.624 107.503 102.638Z" fill="#193566"/>
<path d="M110.314 114.578H104.664C104.378 114.578 104.147 114.347 104.147 114.062C104.147 113.776 104.378 113.545 104.664 113.545H110.314C110.6 113.545 110.83 113.776 110.83 114.062C110.83 114.347 110.6 114.578 110.314 114.578Z" fill="#193566"/>
<path d="M109.037 114.306H105.818V115.651H109.037V114.306Z" fill="#193566"/>
<path d="M107.38 97.3677C107.095 97.3677 106.864 97.1368 106.864 96.8515V95.4117C106.864 95.1264 107.095 94.8955 107.38 94.8955C107.665 94.8955 107.896 95.1264 107.896 95.4117V96.8515C107.896 97.1503 107.665 97.3677 107.38 97.3677Z" fill="#193566"/>
<path d="M103.292 98.5223C103.115 98.5223 102.939 98.4272 102.843 98.2642L102.124 97.0145C101.988 96.77 102.069 96.4576 102.314 96.3218C102.558 96.1859 102.871 96.2675 103.006 96.512L103.726 97.7616C103.862 98.0061 103.781 98.3185 103.536 98.4544C103.468 98.5087 103.387 98.5223 103.292 98.5223Z" fill="#193566"/>
<path d="M100.33 101.578C100.249 101.578 100.154 101.551 100.072 101.511L98.8227 100.791C98.5782 100.655 98.4967 100.342 98.6326 100.098C98.7684 99.8534 99.0808 99.7719 99.3253 99.9077L100.575 100.628C100.819 100.763 100.901 101.076 100.765 101.32C100.684 101.483 100.507 101.578 100.33 101.578Z" fill="#193566"/>
<path d="M99.2846 105.694H97.8448C97.5595 105.694 97.3286 105.464 97.3286 105.178C97.3286 104.893 97.5595 104.662 97.8448 104.662H99.2846C99.5699 104.662 99.8008 104.893 99.8008 105.178C99.8008 105.464 99.5699 105.694 99.2846 105.694Z" fill="#193566"/>
<path d="M99.2031 110.503C99.0266 110.503 98.85 110.408 98.7549 110.245C98.6191 110 98.7006 109.688 98.9451 109.552L100.195 108.832C100.439 108.696 100.752 108.778 100.887 109.022C101.023 109.267 100.942 109.579 100.697 109.715L99.4476 110.435C99.3797 110.476 99.2846 110.503 99.2031 110.503Z" fill="#193566"/>
<path d="M115.911 110.313C115.829 110.313 115.734 110.286 115.652 110.245L114.403 109.525C114.158 109.389 114.077 109.077 114.213 108.832C114.348 108.588 114.661 108.506 114.905 108.642L116.155 109.362C116.4 109.498 116.481 109.81 116.345 110.055C116.25 110.218 116.087 110.313 115.911 110.313Z" fill="#193566"/>
<path d="M117.147 105.463H115.707C115.422 105.463 115.191 105.233 115.191 104.947C115.191 104.662 115.422 104.431 115.707 104.431H117.147C117.432 104.431 117.663 104.662 117.663 104.947C117.663 105.233 117.432 105.463 117.147 105.463Z" fill="#193566"/>
<path d="M114.552 101.375C114.376 101.375 114.199 101.28 114.104 101.117C113.968 100.872 114.05 100.56 114.294 100.424L115.544 99.7041C115.788 99.5683 116.101 99.6498 116.237 99.8943C116.372 100.139 116.291 100.451 116.046 100.587L114.797 101.307C114.729 101.361 114.634 101.375 114.552 101.375Z" fill="#193566"/>
<path d="M111.51 98.4139C111.428 98.4139 111.333 98.3867 111.251 98.346C111.007 98.2101 110.925 97.8977 111.061 97.6532L111.781 96.4036C111.917 96.1591 112.229 96.0776 112.474 96.2134C112.718 96.3492 112.8 96.6616 112.664 96.9061L111.944 98.1558C111.849 98.3188 111.673 98.4139 111.51 98.4139Z" fill="#193566"/>
</g>
<defs>
<radialGradient id="paint0_radial_1_1094" cx="0" cy="0" r="1" gradientUnits="userSpaceOnUse" gradientTransform="translate(69.5376 90.8327) rotate(-90) scale(65.2316)">
<stop stop-color="#0066FF"/>
<stop offset="0.276042" stop-color="#0066FF"/>
<stop offset="0.6406" stop-color="#0097CE"/>
<stop offset="1" stop-color="#0058CB"/>
</radialGradient>
<linearGradient id="paint1_linear_1_1094" x1="73.9451" y1="173.254" x2="73.9451" y2="42.3473" gradientUnits="userSpaceOnUse">
<stop stop-color="#27B7FF"/>
<stop offset="0.9899" stop-color="#F408AB"/>
</linearGradient>
<radialGradient id="paint2_radial_1_1094" cx="0" cy="0" r="1" gradientUnits="userSpaceOnUse" gradientTransform="translate(78.3524 90.8326) rotate(-90) scale(65.2318)">
<stop stop-color="#0066FF"/>
<stop offset="0.307292" stop-color="#0066FF"/>
<stop offset="0.651042" stop-color="#0097CE"/>
<stop offset="0.9819" stop-color="#0058CB"/>
</radialGradient>
<linearGradient id="paint3_linear_1_1094" x1="104.126" y1="173.254" x2="104.126" y2="42.3468" gradientUnits="userSpaceOnUse">
<stop stop-color="#27B7FF"/>
<stop offset="0.9899" stop-color="#F408AB"/>
</linearGradient>
<radialGradient id="paint4_radial_1_1094" cx="0" cy="0" r="1" gradientUnits="userSpaceOnUse" gradientTransform="translate(107.443 90.8329) rotate(-90) scale(65.2315)">
<stop stop-color="#0066FF"/>
<stop offset="0.338542" stop-color="#0066FF"/>
<stop offset="0.692708" stop-color="#0097CE"/>
<stop offset="0.9819" stop-color="#0058CB"/>
</radialGradient>
<radialGradient id="paint5_radial_1_1094" cx="0" cy="0" r="1" gradientUnits="userSpaceOnUse" gradientTransform="translate(114.495 112.65) scale(31.7366 31.7366)">
<stop offset="0.000116"/>
<stop offset="0.0894" stop-color="#1D1D1D"/>
<stop offset="0.3464" stop-color="#6C6C6C"/>
<stop offset="0.5751" stop-color="#ABABAB"/>
<stop offset="0.7669" stop-color="#D9D9D9"/>
<stop offset="0.9145" stop-color="#F5F5F5"/>
<stop offset="1" stop-color="white"/>
</radialGradient>
<linearGradient id="paint6_linear_1_1094" x1="135.652" y1="133.219" x2="83.5189" y2="81.086" gradientUnits="userSpaceOnUse">
<stop stop-color="#071A35"/>
<stop offset="1" stop-color="#193566"/>
</linearGradient>
<clipPath id="clip0_1_1094">
<rect width="1440" height="10784" fill="white" transform="translate(-1093 -3993)"/>
</clipPath>
</defs>
</svg>
