<svg width="253" height="151" viewBox="0 0 253 151" fill="none" xmlns="http://www.w3.org/2000/svg">
<rect width="253" height="151" fill="#555555"/>
<g clip-path="url(#clip0_1_1094)">
<rect width="1440" height="10784" transform="translate(-934 -3809)" fill="black"/>
<rect x="0.262207" width="252.243" height="150.048" rx="14.7953" fill="black"/>
<rect x="0.570442" y="0.308235" width="251.627" height="149.432" rx="14.4871" stroke="white" stroke-opacity="0.5" stroke-width="0.616471"/>
<path d="M228.583 27.6831H34.0718V28.2752H228.583V27.6831Z" fill="#FDFEFF"/>
<path d="M228.583 34.3096H34.0718V34.9016H228.583V34.3096Z" fill="#FDFEFF"/>
<path d="M228.583 40.936H34.0718V41.5281H228.583V40.936Z" fill="#FDFEFF"/>
<path d="M228.583 47.5708H34.0718V48.171H228.583V47.5708Z" fill="#FDFEFF"/>
<path d="M228.583 54.1973H34.0718V54.7975H228.583V54.1973Z" fill="#FDFEFF"/>
<path d="M228.583 60.8232H34.0718V61.4234H228.583V60.8232Z" fill="#FDFEFF"/>
<path d="M228.583 67.4502H34.0718V68.0423H228.583V67.4502Z" fill="#FDFEFF"/>
<path d="M228.583 74.0762H34.0718V74.6764H228.583V74.0762Z" fill="#FDFEFF"/>
<path d="M228.583 80.7026H34.0718V81.2947H228.583V80.7026Z" fill="#FDFEFF"/>
<path d="M228.583 87.3374H34.0718V87.9295H228.583V87.3374Z" fill="#FDFEFF"/>
<path d="M228.583 93.9639H34.0718V94.556H228.583V93.9639Z" fill="#FDFEFF"/>
<path d="M228.583 100.59H34.0718V101.182H228.583V100.59Z" fill="#FDFEFF"/>
<path d="M228.583 107.217H34.0718V107.809H228.583V107.217Z" fill="#FDFEFF"/>
<path d="M228.583 113.843H34.0718V114.435H228.583V113.843Z" fill="#FDFEFF"/>
<path d="M34.1448 27.8613H33.5527V114.403H34.1448V27.8613Z" fill="#FDFEFF"/>
<path d="M51.8423 27.8613H51.2502V114.403H51.8423V27.8613Z" fill="#FDFEFF"/>
<path d="M69.5401 27.8613H68.948V114.403H69.5401V27.8613Z" fill="#FDFEFF"/>
<path d="M87.2376 27.8613H86.6455V114.403H87.2376V27.8613Z" fill="#FDFEFF"/>
<path d="M104.935 27.8613H104.343V114.403H104.935V27.8613Z" fill="#FDFEFF"/>
<path d="M122.625 27.8613H122.032V114.403H122.625V27.8613Z" fill="#FDFEFF"/>
<path d="M140.322 27.8613H139.73V114.403H140.322V27.8613Z" fill="#FDFEFF"/>
<path d="M158.02 27.8613H157.428V114.403H158.02V27.8613Z" fill="#FDFEFF"/>
<path d="M175.717 27.8613H175.125V114.403H175.717V27.8613Z" fill="#FDFEFF"/>
<path d="M193.415 27.8613H192.823V114.403H193.415V27.8613Z" fill="#FDFEFF"/>
<path d="M211.112 27.8613H210.52V114.403H211.112V27.8613Z" fill="#FDFEFF"/>
<path d="M228.802 27.8613H228.21V114.403H228.802V27.8613Z" fill="#FDFEFF"/>
<text fill="#F5F7F6" xml:space="preserve" style="white-space: pre" font-family="Roboto" font-size="5.36913" letter-spacing="0em"><tspan x="44.561" y="124.209">2015</tspan></text>
<text fill="#F5F7F6" xml:space="preserve" style="white-space: pre" font-family="Roboto" font-size="5.36913" letter-spacing="0em"><tspan x="62.9631" y="124.209">2016</tspan></text>
<text fill="#F5F7F6" xml:space="preserve" style="white-space: pre" font-family="Roboto" font-size="5.36913" letter-spacing="0em"><tspan x="81.136" y="124.209">2017</tspan></text>
<text fill="#F5F7F6" xml:space="preserve" style="white-space: pre" font-family="Roboto" font-size="5.36913" letter-spacing="0em"><tspan x="98.3125" y="124.209">2018</tspan></text>
<text fill="#F5F7F6" xml:space="preserve" style="white-space: pre" font-family="Roboto" font-size="5.36913" letter-spacing="0em"><tspan x="116.18" y="124.209">2019</tspan></text>
<text fill="#F5F7F6" xml:space="preserve" style="white-space: pre" font-family="Roboto" font-size="5.36913" letter-spacing="0em"><tspan x="134.583" y="124.209">2020</tspan></text>
<text fill="#F5F7F6" xml:space="preserve" style="white-space: pre" font-family="Roboto" font-size="5.36913" letter-spacing="0em"><tspan x="152.832" y="124.209">2021</tspan></text>
<text fill="#F5F7F6" xml:space="preserve" style="white-space: pre" font-family="Roboto" font-size="5.36913" letter-spacing="0em"><tspan x="170.124" y="124.209">2022</tspan></text>
<text fill="#F5F7F6" xml:space="preserve" style="white-space: pre" font-family="Roboto" font-size="5.36913" letter-spacing="0em"><tspan x="187.454" y="124.209">2023</tspan></text>
<text fill="#F5F7F6" xml:space="preserve" style="white-space: pre" font-family="Roboto" font-size="5.36913" letter-spacing="0em"><tspan x="205.283" y="124.209">2024</tspan></text>
<text fill="#F5F7F6" xml:space="preserve" style="white-space: pre" font-family="Roboto" font-size="5.36913" letter-spacing="0em"><tspan x="28.5728" y="124.428">0</tspan></text>
<text fill="#F5F7F6" xml:space="preserve" style="white-space: pre" font-family="Roboto" font-size="5.36913" letter-spacing="0em"><tspan x="24.5942" y="108.514">10</tspan></text>
<text fill="#F5F7F6" xml:space="preserve" style="white-space: pre" font-family="Roboto" font-size="5.36913" letter-spacing="0em"><tspan x="24.5942" y="95.3522">20</tspan></text>
<text fill="#F5F7F6" xml:space="preserve" style="white-space: pre" font-family="Roboto" font-size="5.36913" letter-spacing="0em"><tspan x="24.5942" y="81.7326">30</tspan></text>
<text fill="#F5F7F6" xml:space="preserve" style="white-space: pre" font-family="Roboto" font-size="5.36913" letter-spacing="0em"><tspan x="24.5942" y="68.5729">40</tspan></text>
<text fill="#F5F7F6" xml:space="preserve" style="white-space: pre" font-family="Roboto" font-size="5.36913" letter-spacing="0em"><tspan x="24.5942" y="55.947">50</tspan></text>
<text fill="#F5F7F6" xml:space="preserve" style="white-space: pre" font-family="Roboto" font-size="5.36913" letter-spacing="0em"><tspan x="24.5942" y="42.7868">60</tspan></text>
<text fill="#F5F7F6" xml:space="preserve" style="white-space: pre" font-family="Roboto" font-size="5.36913" letter-spacing="0em"><tspan x="24.5942" y="29.1672">70</tspan></text>
<path d="M210.65 61.0425H192.425L174.825 48.187L157.379 61.959L139.316 55.3812L122.179 81.3923H104.124L86.3859 94.5154L69.0939 74.4738L51.4937 81.2057V114.833H210.764L210.65 61.0425Z" fill="url(#paint0_linear_1_1094)"/>
<path d="M86.3128 95.1396L68.9559 75.0169L51.6557 81.6353L51.3313 80.7755L69.2316 73.9301L86.4507 93.8987L103.97 80.9378H121.935L139.138 54.8213L157.298 61.4396L174.809 47.6108L192.571 60.5799H210.65V61.5045H192.271L174.833 48.7626L157.46 62.4778L139.503 55.9324L122.43 81.8543H104.27L86.3128 95.1396Z" fill="url(#paint1_linear_1_1094)"/>
<path d="M53.4563 81.2055C53.4563 82.2923 52.5804 83.1683 51.4935 83.1683C50.4067 83.1683 49.5308 82.2923 49.5308 81.2055C49.5308 80.1186 50.4067 79.2427 51.4935 79.2427C52.5804 79.2427 53.4563 80.1186 53.4563 81.2055Z" fill="#F5F7F6"/>
<path d="M71.0567 74.4736C71.0567 75.5604 70.1807 76.4364 69.0939 76.4364C68.0071 76.4364 67.1311 75.5604 67.1311 74.4736C67.1311 73.3868 68.0071 72.5108 69.0939 72.5108C70.1807 72.5027 71.0567 73.3868 71.0567 74.4736Z" fill="#F5F7F6"/>
<path d="M88.3487 94.515C88.3487 95.6019 87.4646 96.4778 86.3859 96.4778C85.2991 96.4778 84.4231 95.5938 84.4231 94.515C84.4231 93.4282 85.2991 92.5522 86.3859 92.5522C87.4727 92.5522 88.3487 93.4282 88.3487 94.515Z" fill="#F5F7F6"/>
<path d="M106.087 81.392C106.087 82.4788 105.211 83.3548 104.124 83.3548C103.037 83.3548 102.161 82.4707 102.161 81.392C102.161 80.3052 103.037 79.4292 104.124 79.4292C105.211 79.4292 106.087 80.3133 106.087 81.392Z" fill="#F5F7F6"/>
<path d="M124.149 81.392C124.149 82.4788 123.273 83.3548 122.186 83.3548C121.1 83.3548 120.224 82.4707 120.224 81.392C120.224 80.3052 121.108 79.4292 122.186 79.4292C123.265 79.4292 124.149 80.3133 124.149 81.392Z" fill="#F5F7F6"/>
<path d="M141.287 55.3812C141.287 56.4681 140.411 57.344 139.324 57.344C138.238 57.344 137.362 56.46 137.362 55.3812C137.362 54.2944 138.238 53.4185 139.324 53.4185C140.403 53.4185 141.287 54.2944 141.287 55.3812Z" fill="#F5F7F6"/>
<path d="M159.342 61.9589C159.342 63.0457 158.466 63.9217 157.379 63.9217C156.292 63.9217 155.416 63.0457 155.416 61.9589C155.416 60.872 156.292 59.9961 157.379 59.9961C158.466 59.9961 159.342 60.872 159.342 61.9589Z" fill="#F5F7F6"/>
<path d="M176.788 48.1869C176.788 49.2737 175.904 50.1497 174.825 50.1497C173.738 50.1497 172.862 49.2656 172.862 48.1869C172.862 47.1001 173.738 46.2241 174.825 46.2241C175.912 46.2241 176.788 47.1001 176.788 48.1869Z" fill="#F5F7F6"/>
<path d="M194.388 61.0424C194.388 62.1292 193.512 63.0052 192.425 63.0052C191.338 63.0052 190.462 62.1292 190.462 61.0424C190.462 59.9555 191.338 59.0796 192.425 59.0796C193.504 59.0796 194.388 59.9555 194.388 61.0424Z" fill="#F5F7F6"/>
<path d="M212.613 61.1151C212.613 62.202 211.729 63.0779 210.65 63.0779C209.563 63.0779 208.687 62.1939 208.687 61.1151C208.687 60.0283 209.563 59.1523 210.65 59.1523C211.729 59.1523 212.613 60.0364 212.613 61.1151Z" fill="#F5F7F6"/>
</g>
<defs>
<linearGradient id="paint0_linear_1_1094" x1="131.128" y1="125.163" x2="131.128" y2="59.6622" gradientUnits="userSpaceOnUse">
<stop offset="0.0101" stop-color="white" stop-opacity="0"/>
<stop offset="1" stop-color="white"/>
</linearGradient>
<linearGradient id="paint1_linear_1_1094" x1="51.6087" y1="71.3753" x2="176.256" y2="71.3753" gradientUnits="userSpaceOnUse">
<stop stop-color="#00EAD1"/>
<stop offset="0.1291" stop-color="#00E0D1"/>
<stop offset="0.3516" stop-color="#00C4CF"/>
<stop offset="0.6406" stop-color="#0097CE"/>
<stop offset="0.9819" stop-color="#0058CB"/>
<stop offset="0.9999" stop-color="#0055CB"/>
</linearGradient>
<clipPath id="clip0_1_1094">
<rect width="1440" height="10784" fill="white" transform="translate(-934 -3809)"/>
</clipPath>
</defs>
</svg>
